<?xml version="1.0" standalone="no"?>
<!DOCTYPE svg PUBLIC "-//W3C//DTD SVG 20010904//EN"
 "http://www.w3.org/TR/2001/REC-SVG-20010904/DTD/svg10.dtd">
<svg version="1.0" xmlns="http://www.w3.org/2000/svg"
 width="512.000000pt" height="512.000000pt" viewBox="0 0 512.000000 512.000000"
 preserveAspectRatio="xMidYMid meet">
<metadata>
Created by potrace 1.11, written by Peter Selinger 2001-2013
</metadata>
<g transform="translate(0.000000,512.000000) scale(0.100000,-0.100000)"
fill="#000000" stroke="none">
<path d="M0 2560 l0 -2560 2560 0 2560 0 0 2560 0 2560 -2560 0 -2560 0 0
-2560z m2190 5 c0 -256 -2 -295 -15 -295 -9 0 -15 9 -15 25 0 30 -11 32 -35 5
-40 -45 -151 -52 -204 -13 -67 50 -95 147 -73 253 18 84 65 135 134 146 53 9
103 -3 138 -32 l30 -26 0 116 c0 109 1 116 20 116 20 0 20 -7 20 -295z m350
93 l1 -203 37 40 c20 22 67 73 103 113 52 57 72 73 90 70 20 -3 14 -11 -54
-84 -43 -45 -77 -85 -77 -89 0 -3 19 -32 43 -63 24 -31 62 -83 86 -114 41 -57
41 -58 17 -58 -20 0 -41 20 -101 101 l-77 100 -31 -24 c-30 -23 -32 -28 -35
-101 -3 -68 -5 -76 -22 -76 -19 0 -20 9 -20 295 0 288 0 295 20 295 19 0 20
-7 20 -202z m1340 85 l0 -116 23 21 c69 65 205 53 244 -22 13 -24 18 -70 21
-193 l5 -163 -27 0 -26 0 0 165 c0 163 0 166 -25 190 -19 20 -34 25 -75 25
-28 0 -65 -7 -81 -16 -48 -25 -59 -65 -59 -224 0 -133 -1 -140 -20 -140 -20 0
-20 7 -20 295 0 288 0 295 20 295 19 0 20 -7 20 -117z m-1515 52 c0 -23 -4
-30 -20 -30 -21 0 -31 25 -21 51 11 28 41 12 41 -21z m-1122 -143 l32 -32 3
-175 c3 -171 3 -175 -17 -175 -20 0 -21 5 -21 156 0 156 -5 185 -39 211 -22
17 -106 16 -141 -2 -52 -27 -60 -58 -60 -220 l0 -145 -25 0 -25 0 0 205 c0
194 1 205 19 205 10 0 21 -9 24 -19 5 -19 7 -18 53 6 40 20 60 24 107 21 49
-4 63 -9 90 -36z m411 18 c90 -44 125 -165 85 -296 -11 -36 -63 -89 -102 -103
-68 -26 -166 1 -204 55 -80 115 -46 303 62 350 44 19 113 17 159 -6z m1431 6
c62 -26 70 -50 74 -238 3 -165 3 -168 -18 -168 -17 0 -21 6 -21 32 l0 32 -27
-26 c-51 -49 -126 -62 -187 -33 -87 41 -82 162 8 209 27 13 66 21 124 24 l84
5 -5 40 c-9 65 -35 91 -95 95 -29 2 -66 -3 -87 -12 -32 -14 -36 -14 -42 0 -7
20 4 30 47 42 51 15 106 14 145 -2z m629 4 c14 -5 26 -16 26 -24 0 -12 -13
-13 -74 -9 -60 5 -79 2 -105 -13 -43 -26 -71 -87 -71 -157 0 -109 45 -167 134
-175 30 -2 69 1 86 7 29 10 31 9 28 -12 -2 -17 -12 -24 -49 -31 -145 -28 -238
52 -239 207 0 69 17 125 48 161 42 47 153 70 216 46z m-1344 -205 c0 -198 -1
-205 -20 -205 -19 0 -20 7 -20 205 0 198 1 205 20 205 19 0 20 -7 20 -205z
m965 -175 c0 -31 -3 -35 -25 -35 -19 0 -26 6 -28 23 -5 36 5 54 30 50 19 -2
23 -9 23 -38z"/>
<path d="M1946 2629 c-43 -34 -56 -70 -56 -154 0 -124 38 -175 129 -175 90 0
122 39 129 153 6 96 -15 160 -58 182 -43 22 -112 19 -144 -6z"/>
<path d="M1499 2633 c-37 -23 -57 -62 -65 -124 -8 -72 10 -135 51 -176 28 -28
40 -33 79 -33 26 0 61 7 77 16 91 47 91 271 0 318 -39 21 -109 20 -142 -1z"/>
<path d="M3017 2470 c-88 -9 -121 -32 -125 -88 -4 -54 24 -82 85 -82 55 0 98
22 118 60 19 36 21 121 3 119 -7 -1 -44 -5 -81 -9z"/>
</g>
</svg>
